<svg width="19" height="19" viewBox="0 0 19 19" fill="none" xmlns="http://www.w3.org/2000/svg">
<path d="M16.9104 9.66493C17.3699 5.25632 14.1546 1.29296 9.74598 0.833531C5.33736 0.374106 1.374 3.58938 0.914577 7.99799C0.455152 12.4066 3.67042 16.37 8.07904 16.8294C12.4877 17.2888 16.451 14.0735 16.9104 9.66493ZM2.08501 8.11996C2.47775 4.35118 5.86303 1.61203 9.62401 2.00396C13.385 2.39589 16.1328 5.77418 15.74 9.54296C15.3473 13.3117 11.962 16.0509 8.20101 15.659C4.44003 15.267 1.69226 11.8887 2.08501 8.11996Z" fill="black"/>
<path d="M16.8367 17.9396C16.8521 17.7913 16.813 17.6374 16.7081 17.5081L15.3102 15.7849C15.1075 15.5351 14.7329 15.496 14.4831 15.6988C14.2332 15.9015 14.1942 16.276 14.3969 16.5259L15.7948 18.2491C15.9975 18.4989 16.3721 18.5379 16.6219 18.3352C16.7512 18.2304 16.8212 18.0878 16.8367 17.9396Z" fill="black"/>
</svg>
